<svg width="1248" height="740" xmlns="http://www.w3.org/2000/svg">
  <g fill="none" fill-rule="evenodd">
    <g transform="matrix(-1 0 0 1 754.5 0)">
      <path d="M385.7 0H11.3C0 0-4.5 11.4 6.8 15.9c15.9 9 81.7 47.7 81.7 47.7 22.7 11.3 29.5 38.6 18.1 61.3 0 2.2-2.2 4.5-4.5 9-131.6 156.7-109 388.2 47.6 519.9A367.6 367.6 0 0 0 669.3 606c129.3-156.6 108.9-390.4-47.6-519.8A360.1 360.1 0 0 0 385.7 0zm10.5 684.4c-162.6 0-295-131.6-295-293.2S233.6 98 396.2 98s295 131.6 295 293.2c-2.3 161.6-132.4 293.2-295 293.2z" fill="#2383C0" fill-rule="nonzero"/>
      <ellipse fill="#FFF" fill-rule="nonzero" cx="396.2" cy="391.2" rx="295" ry="293.2"/>
      <ellipse fill="#2383C0" cx="555.9" cy="370" rx="56.7" ry="84"/>
      <ellipse fill="#2383C0" cx="363" cy="370" rx="81.7" ry="118"/>
    </g>
    <path d="M667.3 684.4h335c119.3 0 119.3-148.8-3-148.8h-89.5c-129.7 0-129.7-161.3 0-161.3h184.6" fill-rule="nonzero" stroke="#2383C0" stroke-linecap="round" stroke-width="50"/>
    <g fill="#2383C0" fill-rule="nonzero">
      <path d="M998 278h114v184H998a60 60 0 0 1-60-60v-64a60 60 0 0 1 60-60z"/>
      <path d="M1111.5 247a29.5 29.5 0 0 1 29.5 29.5v187a29.5 29.5 0 0 1-59 0v-187a29.5 29.5 0 0 1 29.5-29.5zM1248 330c0 11-7.1 20-16 20h-75v-40h75c8.9 0 16 9 16 20zM1248 410c0 11-7.1 20-16 20h-75v-40h75c8.9 0 16 9 16 20z"/>
    </g>
  </g>
</svg>
